<?xml version="1.0" encoding="UTF-8"?>
<svg xmlns="http://www.w3.org/2000/svg" width="24" height="24" version="1.1" viewBox="0 0 24 24">
  <defs>
    <style>
      .cls-1 {
        fill: #939598;
      }

      .cls-2 {
        fill: #2b3648;
      }
    </style>
  </defs>
  <!-- Generator: Adobe Illustrator 28.6.0, SVG Export Plug-In . SVG Version: 1.2.0 Build 709)  -->
  <g>
    <g id="Layer_1">
      <g id="Layer_1-2" data-name="Layer_1">
        <rect id="alt" class="cls-1" y="22" width="24" height="2"/>
        <path class="cls-2" d="M24,9.2L13.8.1,5.1,8.8l-1.1-1-.8,1.2.9.8c-.6.6-2,2-2.3,2.3-.5.5-1,1.4-.8,2.2.3.7,7.5,6.9,8.1,7.4s2.2.5,2.9,0c.4-.3,1.8-1.7,2.5-2.5l.7.6,1.4-1-.9-.8,8.4-8.7h-.1ZM21.4,8.7l-7.4,7.8-1.2-1.1,7.3-7.6,1.3.9ZM14.4,2.4l1.2,1-7.4,7.6-1-.8,7.2-7.8ZM9.9,12.8l7.4-7.7,1.3,1.1-7.5,7.7-1.2-1.1ZM10.7,21c-.8,0-8.4-6.4-8.4-7.1,0-1,2.8-3.1,2.8-3.1l8.6,7.8s-2.2,2.5-3,2.5h0Z"/>
      </g>
    </g>
  </g>
</svg>